<mxfile host="app.diagrams.net" agent="Mozilla/5.0 (Windows NT 10.0; Win64; x64) AppleWebKit/537.36 (KHTML, like Gecko) Chrome/130.0.0.0 Safari/537.36" version="24.8.3">
  <diagram name="Página-1" id="zmliOAf4px3FQIRdQ8Gg">
    <mxGraphModel dx="2140" dy="1873" grid="1" gridSize="10" guides="1" tooltips="1" connect="1" arrows="1" fold="1" page="1" pageScale="1" pageWidth="827" pageHeight="1169" math="0" shadow="0">
      <root>
        <mxCell id="0" />
        <mxCell id="1" parent="0" />
        <mxCell id="yz7GdLmSQ7YcWBbfHNJQ-1" value="Biblioteca" style="whiteSpace=wrap;html=1;aspect=fixed;" vertex="1" parent="1">
          <mxGeometry y="20" width="70" height="70" as="geometry" />
        </mxCell>
        <mxCell id="yz7GdLmSQ7YcWBbfHNJQ-2" value="Usuario" style="whiteSpace=wrap;html=1;aspect=fixed;" vertex="1" parent="1">
          <mxGeometry x="540" y="20" width="70" height="70" as="geometry" />
        </mxCell>
        <mxCell id="yz7GdLmSQ7YcWBbfHNJQ-3" value="Libro" style="whiteSpace=wrap;html=1;aspect=fixed;" vertex="1" parent="1">
          <mxGeometry y="350" width="70" height="70" as="geometry" />
        </mxCell>
        <mxCell id="yz7GdLmSQ7YcWBbfHNJQ-7" value="Proveedor" style="whiteSpace=wrap;html=1;aspect=fixed;" vertex="1" parent="1">
          <mxGeometry x="490" y="350" width="70" height="70" as="geometry" />
        </mxCell>
        <mxCell id="yz7GdLmSQ7YcWBbfHNJQ-8" value="&lt;u&gt;código_biblioteca&lt;/u&gt;" style="ellipse;whiteSpace=wrap;html=1;" vertex="1" parent="1">
          <mxGeometry x="-130" y="-30" width="110" height="50" as="geometry" />
        </mxCell>
        <mxCell id="yz7GdLmSQ7YcWBbfHNJQ-9" value="&lt;u&gt;código_libro&lt;/u&gt;" style="ellipse;whiteSpace=wrap;html=1;" vertex="1" parent="1">
          <mxGeometry x="-135" y="300" width="110" height="50" as="geometry" />
        </mxCell>
        <mxCell id="yz7GdLmSQ7YcWBbfHNJQ-10" value="&lt;u&gt;código_usuario&lt;/u&gt;" style="ellipse;whiteSpace=wrap;html=1;" vertex="1" parent="1">
          <mxGeometry x="480" y="-60" width="110" height="50" as="geometry" />
        </mxCell>
        <mxCell id="yz7GdLmSQ7YcWBbfHNJQ-11" value="&lt;u&gt;código_proveedor&lt;/u&gt;" style="ellipse;whiteSpace=wrap;html=1;" vertex="1" parent="1">
          <mxGeometry x="580" y="295" width="110" height="50" as="geometry" />
        </mxCell>
        <mxCell id="yz7GdLmSQ7YcWBbfHNJQ-12" value="Facultad" style="ellipse;whiteSpace=wrap;html=1;" vertex="1" parent="1">
          <mxGeometry y="-70" width="90" height="50" as="geometry" />
        </mxCell>
        <mxCell id="yz7GdLmSQ7YcWBbfHNJQ-13" value="Nombre_biblioteca" style="ellipse;whiteSpace=wrap;html=1;" vertex="1" parent="1">
          <mxGeometry x="110" y="-50" width="130" height="50" as="geometry" />
        </mxCell>
        <mxCell id="yz7GdLmSQ7YcWBbfHNJQ-19" style="edgeStyle=orthogonalEdgeStyle;rounded=0;orthogonalLoop=1;jettySize=auto;html=1;exitX=1;exitY=0.5;exitDx=0;exitDy=0;entryX=0;entryY=0.5;entryDx=0;entryDy=0;strokeColor=none;" edge="1" parent="1" source="yz7GdLmSQ7YcWBbfHNJQ-15" target="yz7GdLmSQ7YcWBbfHNJQ-1">
          <mxGeometry relative="1" as="geometry" />
        </mxCell>
        <mxCell id="yz7GdLmSQ7YcWBbfHNJQ-15" value="Dirección" style="ellipse;whiteSpace=wrap;html=1;" vertex="1" parent="1">
          <mxGeometry x="-110" y="50" width="90" height="50" as="geometry" />
        </mxCell>
        <mxCell id="yz7GdLmSQ7YcWBbfHNJQ-16" value="" style="endArrow=none;html=1;rounded=0;entryX=0.5;entryY=1;entryDx=0;entryDy=0;" edge="1" parent="1" target="yz7GdLmSQ7YcWBbfHNJQ-12">
          <mxGeometry width="50" height="50" relative="1" as="geometry">
            <mxPoint x="50" y="20" as="sourcePoint" />
            <mxPoint x="360" y="180" as="targetPoint" />
          </mxGeometry>
        </mxCell>
        <mxCell id="yz7GdLmSQ7YcWBbfHNJQ-18" value="" style="endArrow=none;html=1;rounded=0;entryX=1;entryY=1;entryDx=0;entryDy=0;exitX=0;exitY=0.25;exitDx=0;exitDy=0;" edge="1" parent="1" source="yz7GdLmSQ7YcWBbfHNJQ-1" target="yz7GdLmSQ7YcWBbfHNJQ-8">
          <mxGeometry width="50" height="50" relative="1" as="geometry">
            <mxPoint x="10" y="40" as="sourcePoint" />
            <mxPoint x="360" y="180" as="targetPoint" />
          </mxGeometry>
        </mxCell>
        <mxCell id="yz7GdLmSQ7YcWBbfHNJQ-21" value="" style="endArrow=none;html=1;rounded=0;exitX=1;exitY=0.5;exitDx=0;exitDy=0;entryX=0;entryY=0.5;entryDx=0;entryDy=0;" edge="1" parent="1" source="yz7GdLmSQ7YcWBbfHNJQ-15" target="yz7GdLmSQ7YcWBbfHNJQ-1">
          <mxGeometry width="50" height="50" relative="1" as="geometry">
            <mxPoint x="310" y="230" as="sourcePoint" />
            <mxPoint x="360" y="180" as="targetPoint" />
          </mxGeometry>
        </mxCell>
        <mxCell id="yz7GdLmSQ7YcWBbfHNJQ-22" value="" style="endArrow=none;html=1;rounded=0;entryX=0;entryY=1;entryDx=0;entryDy=0;exitX=0.75;exitY=0;exitDx=0;exitDy=0;" edge="1" parent="1" source="yz7GdLmSQ7YcWBbfHNJQ-1" target="yz7GdLmSQ7YcWBbfHNJQ-13">
          <mxGeometry width="50" height="50" relative="1" as="geometry">
            <mxPoint x="310" y="230" as="sourcePoint" />
            <mxPoint x="360" y="180" as="targetPoint" />
          </mxGeometry>
        </mxCell>
        <mxCell id="yz7GdLmSQ7YcWBbfHNJQ-24" value="Encargado" style="rhombus;whiteSpace=wrap;html=1;" vertex="1" parent="1">
          <mxGeometry x="280" y="15" width="80" height="80" as="geometry" />
        </mxCell>
        <mxCell id="yz7GdLmSQ7YcWBbfHNJQ-25" value="" style="endArrow=classic;html=1;rounded=0;exitX=0;exitY=0.5;exitDx=0;exitDy=0;entryX=1;entryY=0.5;entryDx=0;entryDy=0;" edge="1" parent="1" source="yz7GdLmSQ7YcWBbfHNJQ-24" target="yz7GdLmSQ7YcWBbfHNJQ-1">
          <mxGeometry width="50" height="50" relative="1" as="geometry">
            <mxPoint x="310" y="230" as="sourcePoint" />
            <mxPoint x="360" y="180" as="targetPoint" />
          </mxGeometry>
        </mxCell>
        <mxCell id="yz7GdLmSQ7YcWBbfHNJQ-26" value="" style="endArrow=classic;html=1;rounded=0;exitX=1;exitY=0.5;exitDx=0;exitDy=0;entryX=0;entryY=0.5;entryDx=0;entryDy=0;" edge="1" parent="1" source="yz7GdLmSQ7YcWBbfHNJQ-24" target="yz7GdLmSQ7YcWBbfHNJQ-2">
          <mxGeometry width="50" height="50" relative="1" as="geometry">
            <mxPoint x="310" y="230" as="sourcePoint" />
            <mxPoint x="360" y="180" as="targetPoint" />
          </mxGeometry>
        </mxCell>
        <mxCell id="yz7GdLmSQ7YcWBbfHNJQ-28" value="Nombre_completo" style="ellipse;whiteSpace=wrap;html=1;" vertex="1" parent="1">
          <mxGeometry x="620" y="-60" width="130" height="50" as="geometry" />
        </mxCell>
        <mxCell id="yz7GdLmSQ7YcWBbfHNJQ-29" value="correo_electrónico" style="ellipse;whiteSpace=wrap;html=1;" vertex="1" parent="1">
          <mxGeometry x="650" y="10" width="130" height="50" as="geometry" />
        </mxCell>
        <mxCell id="yz7GdLmSQ7YcWBbfHNJQ-30" value="tipo_usuario" style="ellipse;whiteSpace=wrap;html=1;" vertex="1" parent="1">
          <mxGeometry x="650" y="80" width="130" height="50" as="geometry" />
        </mxCell>
        <mxCell id="yz7GdLmSQ7YcWBbfHNJQ-31" value="" style="endArrow=none;html=1;rounded=0;entryX=0.5;entryY=1;entryDx=0;entryDy=0;" edge="1" parent="1" target="yz7GdLmSQ7YcWBbfHNJQ-10">
          <mxGeometry width="50" height="50" relative="1" as="geometry">
            <mxPoint x="575" y="20" as="sourcePoint" />
            <mxPoint x="360" y="180" as="targetPoint" />
          </mxGeometry>
        </mxCell>
        <mxCell id="yz7GdLmSQ7YcWBbfHNJQ-32" value="" style="endArrow=none;html=1;rounded=0;entryX=0;entryY=1;entryDx=0;entryDy=0;exitX=0.5;exitY=0;exitDx=0;exitDy=0;" edge="1" parent="1" source="yz7GdLmSQ7YcWBbfHNJQ-2" target="yz7GdLmSQ7YcWBbfHNJQ-28">
          <mxGeometry width="50" height="50" relative="1" as="geometry">
            <mxPoint x="310" y="230" as="sourcePoint" />
            <mxPoint x="360" y="180" as="targetPoint" />
          </mxGeometry>
        </mxCell>
        <mxCell id="yz7GdLmSQ7YcWBbfHNJQ-33" value="" style="endArrow=none;html=1;rounded=0;entryX=0;entryY=0.5;entryDx=0;entryDy=0;exitX=1;exitY=0.5;exitDx=0;exitDy=0;" edge="1" parent="1" source="yz7GdLmSQ7YcWBbfHNJQ-2" target="yz7GdLmSQ7YcWBbfHNJQ-29">
          <mxGeometry width="50" height="50" relative="1" as="geometry">
            <mxPoint x="310" y="230" as="sourcePoint" />
            <mxPoint x="360" y="180" as="targetPoint" />
          </mxGeometry>
        </mxCell>
        <mxCell id="yz7GdLmSQ7YcWBbfHNJQ-34" value="" style="endArrow=none;html=1;rounded=0;entryX=0;entryY=0;entryDx=0;entryDy=0;exitX=1;exitY=0.5;exitDx=0;exitDy=0;" edge="1" parent="1" source="yz7GdLmSQ7YcWBbfHNJQ-2" target="yz7GdLmSQ7YcWBbfHNJQ-30">
          <mxGeometry width="50" height="50" relative="1" as="geometry">
            <mxPoint x="310" y="230" as="sourcePoint" />
            <mxPoint x="360" y="180" as="targetPoint" />
          </mxGeometry>
        </mxCell>
        <mxCell id="yz7GdLmSQ7YcWBbfHNJQ-35" value="Nombre_libro" style="ellipse;whiteSpace=wrap;html=1;" vertex="1" parent="1">
          <mxGeometry x="-175" y="390" width="130" height="50" as="geometry" />
        </mxCell>
        <mxCell id="yz7GdLmSQ7YcWBbfHNJQ-36" value="" style="endArrow=none;html=1;rounded=0;entryX=0;entryY=0.5;entryDx=0;entryDy=0;" edge="1" parent="1" target="yz7GdLmSQ7YcWBbfHNJQ-3">
          <mxGeometry width="50" height="50" relative="1" as="geometry">
            <mxPoint x="-55.22292993629526" y="346.0191082802621" as="sourcePoint" />
            <mxPoint x="340" y="300" as="targetPoint" />
          </mxGeometry>
        </mxCell>
        <mxCell id="yz7GdLmSQ7YcWBbfHNJQ-37" value="" style="endArrow=none;html=1;rounded=0;exitX=1;exitY=0;exitDx=0;exitDy=0;entryX=0;entryY=0.5;entryDx=0;entryDy=0;" edge="1" parent="1" target="yz7GdLmSQ7YcWBbfHNJQ-3">
          <mxGeometry width="50" height="50" relative="1" as="geometry">
            <mxPoint x="-69.03805922287438" y="397.3223304703365" as="sourcePoint" />
            <mxPoint y="380" as="targetPoint" />
          </mxGeometry>
        </mxCell>
        <mxCell id="yz7GdLmSQ7YcWBbfHNJQ-38" value="Nombre_autor" style="ellipse;whiteSpace=wrap;html=1;" vertex="1" parent="1">
          <mxGeometry x="-110" y="470" width="110" height="50" as="geometry" />
        </mxCell>
        <mxCell id="yz7GdLmSQ7YcWBbfHNJQ-39" value="Categoría_libro" style="ellipse;whiteSpace=wrap;html=1;" vertex="1" parent="1">
          <mxGeometry x="40" y="460" width="130" height="50" as="geometry" />
        </mxCell>
        <mxCell id="yz7GdLmSQ7YcWBbfHNJQ-41" value="" style="endArrow=none;html=1;rounded=0;exitX=0.5;exitY=0;exitDx=0;exitDy=0;entryX=0.25;entryY=1;entryDx=0;entryDy=0;" edge="1" parent="1" source="yz7GdLmSQ7YcWBbfHNJQ-38" target="yz7GdLmSQ7YcWBbfHNJQ-3">
          <mxGeometry width="50" height="50" relative="1" as="geometry">
            <mxPoint x="290" y="470" as="sourcePoint" />
            <mxPoint x="340" y="420" as="targetPoint" />
          </mxGeometry>
        </mxCell>
        <mxCell id="yz7GdLmSQ7YcWBbfHNJQ-43" value="" style="endArrow=none;html=1;rounded=0;entryX=0.25;entryY=1;entryDx=0;entryDy=0;exitX=0.423;exitY=0.06;exitDx=0;exitDy=0;exitPerimeter=0;" edge="1" parent="1" source="yz7GdLmSQ7YcWBbfHNJQ-39" target="yz7GdLmSQ7YcWBbfHNJQ-3">
          <mxGeometry width="50" height="50" relative="1" as="geometry">
            <mxPoint x="290" y="470" as="sourcePoint" />
            <mxPoint x="340" y="420" as="targetPoint" />
          </mxGeometry>
        </mxCell>
        <mxCell id="yz7GdLmSQ7YcWBbfHNJQ-48" value="Alquila" style="rhombus;whiteSpace=wrap;html=1;" vertex="1" parent="1">
          <mxGeometry x="270" y="190" width="80" height="80" as="geometry" />
        </mxCell>
        <mxCell id="yz7GdLmSQ7YcWBbfHNJQ-49" value="" style="endArrow=classic;html=1;rounded=0;exitX=1;exitY=0;exitDx=0;exitDy=0;" edge="1" parent="1" source="yz7GdLmSQ7YcWBbfHNJQ-48">
          <mxGeometry width="50" height="50" relative="1" as="geometry">
            <mxPoint x="330" y="200" as="sourcePoint" />
            <mxPoint x="540" y="60" as="targetPoint" />
          </mxGeometry>
        </mxCell>
        <mxCell id="yz7GdLmSQ7YcWBbfHNJQ-50" value="" style="endArrow=classic;html=1;rounded=0;exitX=0.15;exitY=0.663;exitDx=0;exitDy=0;exitPerimeter=0;entryX=1.014;entryY=0.371;entryDx=0;entryDy=0;entryPerimeter=0;" edge="1" parent="1" source="yz7GdLmSQ7YcWBbfHNJQ-48" target="yz7GdLmSQ7YcWBbfHNJQ-3">
          <mxGeometry width="50" height="50" relative="1" as="geometry">
            <mxPoint x="290" y="250" as="sourcePoint" />
            <mxPoint x="90" y="380" as="targetPoint" />
          </mxGeometry>
        </mxCell>
        <mxCell id="yz7GdLmSQ7YcWBbfHNJQ-51" value="Tiene" style="rhombus;whiteSpace=wrap;html=1;" vertex="1" parent="1">
          <mxGeometry x="-5" y="190" width="80" height="80" as="geometry" />
        </mxCell>
        <mxCell id="yz7GdLmSQ7YcWBbfHNJQ-52" value="" style="endArrow=classic;html=1;rounded=0;exitX=0.5;exitY=0;exitDx=0;exitDy=0;entryX=0.5;entryY=1;entryDx=0;entryDy=0;" edge="1" parent="1" source="yz7GdLmSQ7YcWBbfHNJQ-51" target="yz7GdLmSQ7YcWBbfHNJQ-1">
          <mxGeometry width="50" height="50" relative="1" as="geometry">
            <mxPoint x="310" y="220" as="sourcePoint" />
            <mxPoint x="360" y="170" as="targetPoint" />
          </mxGeometry>
        </mxCell>
        <mxCell id="yz7GdLmSQ7YcWBbfHNJQ-55" value="Provee" style="rhombus;whiteSpace=wrap;html=1;" vertex="1" parent="1">
          <mxGeometry x="280" y="345" width="80" height="80" as="geometry" />
        </mxCell>
        <mxCell id="yz7GdLmSQ7YcWBbfHNJQ-56" value="" style="endArrow=classic;html=1;rounded=0;entryX=0;entryY=0.5;entryDx=0;entryDy=0;exitX=1;exitY=0.5;exitDx=0;exitDy=0;" edge="1" parent="1" source="yz7GdLmSQ7YcWBbfHNJQ-55" target="yz7GdLmSQ7YcWBbfHNJQ-7">
          <mxGeometry width="50" height="50" relative="1" as="geometry">
            <mxPoint x="360" y="380" as="sourcePoint" />
            <mxPoint x="414" y="330" as="targetPoint" />
          </mxGeometry>
        </mxCell>
        <mxCell id="yz7GdLmSQ7YcWBbfHNJQ-57" value="" style="endArrow=none;html=1;rounded=0;exitX=1;exitY=0.5;exitDx=0;exitDy=0;" edge="1" parent="1" source="yz7GdLmSQ7YcWBbfHNJQ-3" target="yz7GdLmSQ7YcWBbfHNJQ-55">
          <mxGeometry width="50" height="50" relative="1" as="geometry">
            <mxPoint x="310" y="220" as="sourcePoint" />
            <mxPoint x="360" y="170" as="targetPoint" />
          </mxGeometry>
        </mxCell>
        <mxCell id="yz7GdLmSQ7YcWBbfHNJQ-58" value="" style="endArrow=none;html=1;rounded=0;entryX=0.5;entryY=1;entryDx=0;entryDy=0;exitX=0.5;exitY=0;exitDx=0;exitDy=0;" edge="1" parent="1" source="yz7GdLmSQ7YcWBbfHNJQ-3" target="yz7GdLmSQ7YcWBbfHNJQ-51">
          <mxGeometry width="50" height="50" relative="1" as="geometry">
            <mxPoint x="310" y="220" as="sourcePoint" />
            <mxPoint x="360" y="170" as="targetPoint" />
          </mxGeometry>
        </mxCell>
        <mxCell id="yz7GdLmSQ7YcWBbfHNJQ-60" value="Nombre_proveedor" style="ellipse;whiteSpace=wrap;html=1;" vertex="1" parent="1">
          <mxGeometry x="600" y="370" width="110" height="50" as="geometry" />
        </mxCell>
        <mxCell id="yz7GdLmSQ7YcWBbfHNJQ-61" value="Dirección_proveedor" style="ellipse;whiteSpace=wrap;html=1;" vertex="1" parent="1">
          <mxGeometry x="570" y="450" width="110" height="50" as="geometry" />
        </mxCell>
        <mxCell id="yz7GdLmSQ7YcWBbfHNJQ-63" value="Teléfono_Provedor" style="ellipse;whiteSpace=wrap;html=1;" vertex="1" parent="1">
          <mxGeometry x="430" y="450" width="110" height="50" as="geometry" />
        </mxCell>
        <mxCell id="yz7GdLmSQ7YcWBbfHNJQ-64" value="" style="endArrow=none;html=1;rounded=0;exitX=1;exitY=0.25;exitDx=0;exitDy=0;entryX=0;entryY=1;entryDx=0;entryDy=0;" edge="1" parent="1" source="yz7GdLmSQ7YcWBbfHNJQ-7" target="yz7GdLmSQ7YcWBbfHNJQ-11">
          <mxGeometry width="50" height="50" relative="1" as="geometry">
            <mxPoint x="510" y="280" as="sourcePoint" />
            <mxPoint x="560" y="230" as="targetPoint" />
          </mxGeometry>
        </mxCell>
        <mxCell id="yz7GdLmSQ7YcWBbfHNJQ-65" value="" style="endArrow=none;html=1;rounded=0;exitX=1;exitY=0.25;exitDx=0;exitDy=0;entryX=0;entryY=0.5;entryDx=0;entryDy=0;" edge="1" parent="1" source="yz7GdLmSQ7YcWBbfHNJQ-7" target="yz7GdLmSQ7YcWBbfHNJQ-60">
          <mxGeometry width="50" height="50" relative="1" as="geometry">
            <mxPoint x="520" y="290" as="sourcePoint" />
            <mxPoint x="570" y="240" as="targetPoint" />
          </mxGeometry>
        </mxCell>
        <mxCell id="yz7GdLmSQ7YcWBbfHNJQ-66" value="" style="endArrow=none;html=1;rounded=0;exitX=0.75;exitY=1;exitDx=0;exitDy=0;entryX=0.345;entryY=0.04;entryDx=0;entryDy=0;entryPerimeter=0;" edge="1" parent="1" source="yz7GdLmSQ7YcWBbfHNJQ-7" target="yz7GdLmSQ7YcWBbfHNJQ-61">
          <mxGeometry width="50" height="50" relative="1" as="geometry">
            <mxPoint x="530" y="300" as="sourcePoint" />
            <mxPoint x="580" y="250" as="targetPoint" />
          </mxGeometry>
        </mxCell>
        <mxCell id="yz7GdLmSQ7YcWBbfHNJQ-67" value="" style="endArrow=none;html=1;rounded=0;exitX=0.691;exitY=0.06;exitDx=0;exitDy=0;exitPerimeter=0;entryX=0.75;entryY=1;entryDx=0;entryDy=0;" edge="1" parent="1" source="yz7GdLmSQ7YcWBbfHNJQ-63" target="yz7GdLmSQ7YcWBbfHNJQ-7">
          <mxGeometry width="50" height="50" relative="1" as="geometry">
            <mxPoint x="540" y="310" as="sourcePoint" />
            <mxPoint x="590" y="260" as="targetPoint" />
          </mxGeometry>
        </mxCell>
      </root>
    </mxGraphModel>
  </diagram>
</mxfile>
